<svg width="262" height="249" viewBox="0 0 262 249" fill="none" xmlns="http://www.w3.org/2000/svg">
<mask id="path-1-outside-1_1084_757" maskUnits="userSpaceOnUse" x="0" y="0" width="262" height="249" fill="black">
<rect fill="white" width="262" height="249"/>
<path fill-rule="evenodd" clip-rule="evenodd" d="M250.961 107.453C255.742 107.453 257.796 101.389 254.001 98.483L134.525 7.02965C132.731 5.65679 130.24 5.65678 128.446 7.02964L8.97063 98.483C5.17478 101.389 7.22953 107.453 12.0098 107.453H39.4856C42.247 107.453 44.4856 109.692 44.4856 112.453V237.703C44.4856 240.465 46.7242 242.703 49.4856 242.703H213.486C216.247 242.703 218.486 240.465 218.486 237.703V112.453C218.486 109.692 220.724 107.453 223.486 107.453H250.961Z"/>
</mask>
<path d="M254.001 98.483L250.354 103.247L254.001 98.483ZM134.525 7.02965L130.878 11.7941L134.525 7.02965ZM128.446 7.02964L132.093 11.7941L128.446 7.02964ZM130.878 11.7941L250.354 103.247L257.647 93.7186L138.172 2.26522L130.878 11.7941ZM12.6176 103.247L132.093 11.7941L124.8 2.26522L5.32368 93.7186L12.6176 103.247ZM39.4856 101.453H12.0098V113.453H39.4856V101.453ZM50.4856 237.703V112.453H38.4856V237.703H50.4856ZM213.486 236.703H49.4856V248.703H213.486V236.703ZM212.486 112.453V237.703H224.486V112.453H212.486ZM250.961 101.453H223.486V113.453H250.961V101.453ZM224.486 112.453C224.486 113.006 224.038 113.453 223.486 113.453V101.453C217.41 101.453 212.486 106.378 212.486 112.453H224.486ZM213.486 248.703C219.561 248.703 224.486 243.778 224.486 237.703H212.486C212.486 237.151 212.933 236.703 213.486 236.703V248.703ZM38.4856 237.703C38.4856 243.778 43.4104 248.703 49.4856 248.703V236.703C50.0379 236.703 50.4856 237.151 50.4856 237.703H38.4856ZM39.4856 113.453C38.9333 113.453 38.4856 113.006 38.4856 112.453H50.4856C50.4856 106.378 45.5607 101.453 39.4856 101.453V113.453ZM5.32368 93.7186C-3.02723 100.111 1.49329 113.453 12.0098 113.453V101.453C12.1374 101.453 12.3888 101.511 12.6216 101.688C12.8194 101.839 12.9141 102.006 12.9569 102.132C12.9997 102.259 13.026 102.449 12.9605 102.689C12.8835 102.971 12.719 103.17 12.6176 103.247L5.32368 93.7186ZM250.354 103.247C250.252 103.17 250.088 102.971 250.011 102.689C249.945 102.449 249.971 102.259 250.014 102.132C250.057 102.006 250.152 101.839 250.35 101.688C250.582 101.511 250.834 101.453 250.961 101.453V113.453C261.478 113.453 265.998 100.111 257.647 93.7186L250.354 103.247ZM138.172 2.26522C134.226 -0.755063 128.745 -0.755085 124.8 2.26522L132.093 11.7941C131.735 12.0686 131.236 12.0686 130.878 11.7941L138.172 2.26522Z" fill="white" mask="url(#path-1-outside-1_1084_757)"/>
</svg>
