<svg width="23" height="303" viewBox="0 0 23 303" fill="none" preserveAspectRatio="none" xmlns="http://www.w3.org/2000/svg">
<g opacity="0.5">
<path d="M3.2936 12.3581L22.1242 3.61261C19.7956 99.3462 19.2661 195.127 20.4965 290.876L2.01643 300.166C0.65359 204.23 1.0897 108.279 3.2936 12.3581Z" fill="#C4C4C4"/>
<path d="M2.1021 300.618C1.42458 297.83 4.99133 293.321 10.0533 290.556C15.1231 287.792 19.7723 287.823 20.4498 290.603C21.1273 293.391 17.5606 297.885 12.4986 300.649C7.42886 303.414 2.77963 303.406 2.1021 300.61V300.618Z" fill="#8E8E8E"/>
<path d="M3.37149 12.3581C2.803 9.54677 6.52549 5.17011 11.6887 2.60018C16.8519 0.0302595 21.5012 0.224951 22.0774 3.03629C22.6459 5.84763 18.9234 10.2009 13.7602 12.7786C8.59701 15.3564 3.94778 15.1695 3.37149 12.3581Z" fill="#8E8E8E"/>
<path d="M20.4498 14.9047C18.2226 107.258 17.6463 199.659 18.7365 292.044C18.7599 292.028 18.7677 291.74 18.7833 291.203C18.7833 290.658 18.7833 289.863 18.7833 288.828C18.7677 286.764 18.7365 283.742 18.7054 279.911C18.6119 272.248 18.4795 261.329 18.3238 248.246C18.0123 222.08 17.7631 187.261 17.802 152.52C17.8487 117.78 18.1992 83.109 18.7288 57.2617C19.0013 44.342 19.2895 33.6184 19.5932 26.1968C19.8813 18.7752 20.185 14.6477 20.442 14.9047H20.4498Z" fill="#8E8E8E"/>
<path d="M16.7117 274.895C16.7117 274.895 11.3694 264.499 1.74387 270.9L1.87625 283.189C1.87625 283.189 0.653595 279.88 16.7117 274.903" fill="#B7B7B7"/>
<path d="M16.8519 275.518C15.933 276.585 13.6979 276.648 12.5064 277.177C11.0034 277.855 9.53153 278.719 8.1609 279.872C5.42743 282.161 3.05999 285.736 2.07096 290.237C0.638034 285.767 1.26884 279.942 3.66743 276.632C5.39629 274.241 7.81825 273.276 10.1623 273.322C11.3461 273.346 12.522 273.61 13.6746 274.008C14.5701 274.311 16.1744 274.6 16.8441 275.511L16.8519 275.518Z" fill="#C4C4C4"/>
<path d="M2.77185 287.722C4.60195 279.194 11.3616 276.141 16.7195 275.869C16.042 276.165 15.3645 276.383 14.687 276.648C10.2013 278.509 5.13151 281.18 2.76407 287.722H2.77185Z" fill="#8E8E8E"/>
<path d="M16.5015 252.413C16.5015 252.413 11.1825 242 1.54138 248.371L1.64263 260.66C1.64263 260.66 0.427753 257.35 16.5015 252.413Z" fill="#B7B7B7"/>
<path d="M16.6339 253.035C15.7072 254.102 13.4721 254.157 12.2884 254.686C10.7854 255.356 9.31349 256.221 7.93508 257.365C5.20161 259.647 2.8108 263.214 1.81398 267.715C0.396627 263.245 1.05079 257.412 3.44939 254.118C5.18604 251.735 7.60799 250.769 9.95207 250.832C11.1358 250.863 12.3117 251.127 13.4643 251.525C14.3599 251.836 15.9641 252.124 16.6261 253.043L16.6339 253.035Z" fill="#C4C4C4"/>
<path d="M2.51486 265.192C4.3839 256.672 11.1358 253.635 16.5015 253.378C15.824 253.674 15.1464 253.892 14.4689 254.149C9.96765 255.995 4.91346 258.658 2.51486 265.192Z" fill="#8E8E8E"/>
<path d="M16.3457 229.922C16.3457 229.922 11.0735 219.494 1.40121 225.841L1.4713 238.13C1.4713 238.13 0.26422 234.812 16.3457 229.93" fill="#B7B7B7"/>
<path d="M16.4859 230.545C15.5592 231.604 13.3241 231.658 12.1326 232.18C10.6296 232.85 9.14993 233.699 7.77152 234.844C5.03027 237.118 2.63946 240.677 1.61928 245.178C0.225289 240.7 0.887242 234.875 3.30141 231.581C5.03806 229.205 7.46781 228.247 9.81189 228.31C10.9956 228.341 12.1715 228.613 13.3241 229.011C14.2197 229.322 15.8162 229.618 16.4859 230.537V230.545Z" fill="#C4C4C4"/>
<path d="M2.33572 242.662C4.22812 234.143 10.9878 231.129 16.3535 230.895C15.676 231.191 14.9907 231.401 14.3209 231.658C9.81966 233.496 4.7499 236.136 2.33572 242.662Z" fill="#8E8E8E"/>
<path d="M16.2679 207.439C16.2679 207.439 11.0268 196.996 1.33893 203.311L1.37007 215.6C1.37007 215.6 0.170779 212.283 16.2679 207.439Z" fill="#B7B7B7"/>
<path d="M16.4002 208.062C15.4657 209.121 13.2384 209.16 12.0469 209.689C10.5361 210.351 9.06426 211.2 7.68585 212.345C4.9368 214.611 2.546 218.162 1.51024 222.656C0.12404 218.178 0.801563 212.353 3.22352 209.066C4.96796 206.691 7.4055 205.749 9.74958 205.819C10.9333 205.858 12.1015 206.131 13.254 206.535C14.1496 206.847 15.7461 207.143 16.408 208.07L16.4002 208.062Z" fill="#C4C4C4"/>
<path d="M2.21893 220.14C4.1347 211.629 10.9022 208.638 16.2679 208.412C15.5903 208.7 14.905 208.918 14.2353 209.168C9.72622 210.99 4.65646 213.622 2.22672 220.14H2.21893Z" fill="#8E8E8E"/>
<path d="M16.2523 184.948C16.2523 184.948 11.0345 174.489 1.33112 180.774V193.063C1.33112 193.063 0.131816 189.737 16.2523 184.948Z" fill="#B7B7B7"/>
<path d="M16.3847 185.571C15.4501 186.622 13.2151 186.661 12.0236 187.183C10.5128 187.845 9.03313 188.686 7.64692 189.823C4.89788 192.082 2.4915 195.625 1.44016 200.118C0.0695366 195.633 0.75485 189.808 3.19239 186.537C4.95239 184.169 7.38214 183.227 9.72623 183.305C10.9099 183.344 12.0781 183.624 13.2307 184.029C14.1263 184.348 15.7227 184.644 16.3769 185.571H16.3847Z" fill="#C4C4C4"/>
<path d="M2.1644 197.611C4.09574 189.107 10.8788 186.132 16.2445 185.922C15.567 186.21 14.8816 186.42 14.2041 186.677C9.68728 188.484 4.60973 191.1 2.15662 197.611H2.1644Z" fill="#8E8E8E"/>
<path d="M16.299 162.465C16.299 162.465 11.1046 151.991 1.38565 158.252L1.33892 170.541C1.33892 170.541 0.17078 167.216 16.299 162.465Z" fill="#B7B7B7"/>
<path d="M16.4314 163.088C15.4969 164.139 13.2618 164.171 12.0625 164.685C10.5517 165.339 9.06428 166.18 7.67807 167.317C4.91346 169.567 2.49929 173.103 1.44017 177.597C0.0695426 173.111 0.785997 167.286 3.23132 164.015C4.99133 161.655 7.42887 160.721 9.77296 160.806C10.9567 160.845 12.1248 161.133 13.2774 161.538C14.173 161.858 15.7694 162.161 16.4236 163.088H16.4314Z" fill="#C4C4C4"/>
<path d="M2.17999 175.081C4.13469 166.585 10.9411 163.625 16.299 163.431C15.6215 163.719 14.9362 163.929 14.2586 164.178C9.7418 165.977 4.64089 168.571 2.17999 175.081Z" fill="#8E8E8E"/>
<path d="M16.4158 139.974C16.4158 139.974 11.2526 129.484 1.51803 135.715L1.44016 148.003C1.44016 148.003 0.279797 144.67 16.4158 139.974Z" fill="#B7B7B7"/>
<path d="M16.5482 140.597C15.6059 141.649 13.3708 141.672 12.1793 142.186C10.6685 142.832 9.18106 143.674 7.78707 144.803C5.02245 147.046 2.57713 150.573 1.51801 155.059C0.162957 150.566 0.910572 144.748 3.3559 141.485C5.12369 139.126 7.56902 138.199 9.90531 138.292C11.089 138.339 12.2572 138.627 13.402 139.04C14.2976 139.359 15.8862 139.671 16.5404 140.597H16.5482Z" fill="#C4C4C4"/>
<path d="M2.25006 152.551C4.2437 144.055 11.0423 141.119 16.408 140.948C15.7227 141.236 15.0452 141.438 14.3676 141.688C9.84302 143.471 4.74211 146.057 2.25006 152.551Z" fill="#8E8E8E"/>
<path d="M16.5949 117.491C16.5949 117.491 11.4707 106.994 1.70495 113.193L1.59592 125.482C1.59592 125.482 0.443344 122.148 16.5949 117.499" fill="#B7B7B7"/>
<path d="M16.7195 118.114C15.7772 119.158 13.5422 119.181 12.3429 119.688C10.8243 120.334 9.34462 121.167 7.94284 122.289C5.17044 124.524 2.73291 128.044 1.64263 132.529C0.310945 128.036 1.05856 122.219 3.51946 118.963C5.29505 116.611 7.74037 115.693 10.0767 115.786C11.2604 115.833 12.4285 116.129 13.5733 116.541C14.4689 116.868 16.0576 117.18 16.7117 118.114H16.7195Z" fill="#C4C4C4"/>
<path d="M2.39804 130.022C4.41504 121.533 11.2215 118.621 16.5871 118.457C15.9018 118.737 15.2243 118.948 14.539 119.189C10.0066 120.957 4.90566 123.527 2.39804 130.022Z" fill="#8E8E8E"/>
<path d="M16.8363 95.0007C16.8363 95.0007 11.751 84.4873 1.96971 90.6551L1.82174 102.944C1.82174 102.944 0.676953 99.6032 16.8363 95.0007Z" fill="#B7B7B7"/>
<path d="M16.9609 95.6315C16.0186 96.6751 13.7836 96.6906 12.5843 97.189C11.0657 97.8276 9.57824 98.6609 8.18425 99.7823C5.40406 102.01 2.95874 105.522 1.85289 110.008C0.536781 105.506 1.29997 99.6967 3.76087 96.4414C5.53645 94.0973 7.98956 93.1784 10.3336 93.2874C11.5174 93.3419 12.6855 93.6301 13.8303 94.0506C14.7181 94.3777 16.3146 94.697 16.9609 95.6315Z" fill="#C4C4C4"/>
<path d="M2.60832 107.5C4.64868 99.0191 11.4551 96.1221 16.8208 95.9741C16.1355 96.2545 15.4502 96.457 14.7726 96.7062C10.2402 98.4584 5.13151 101.021 2.60052 107.5H2.60832Z" fill="#8E8E8E"/>
<path d="M17.1479 72.5178C17.1479 72.5178 12.0859 61.9889 2.28901 68.1333L2.10211 80.4144C2.10211 80.4144 0.957326 77.0735 17.1479 72.5178Z" fill="#B7B7B7"/>
<path d="M17.2725 73.1407C16.3224 74.1843 14.0873 74.1843 12.888 74.6905C11.3694 75.329 9.87419 76.1545 8.47241 77.2682C5.68443 79.4876 3.23132 82.9921 2.11768 87.47C0.809358 82.9687 1.58034 77.1514 4.0646 73.9117C5.85576 71.5676 8.30886 70.6642 10.6452 70.7733C11.8289 70.8278 12.997 71.1237 14.1418 71.552C15.0296 71.8791 16.6261 72.2062 17.2647 73.1407H17.2725Z" fill="#C4C4C4"/>
<path d="M2.88086 84.9702C4.9368 76.4972 11.7588 73.6158 17.1323 73.4834C16.447 73.7638 15.7616 73.9662 15.0841 74.2077C10.5361 75.9521 5.42742 78.4909 2.88086 84.9702Z" fill="#8E8E8E"/>
<path d="M17.5762 47.2312C17.5762 47.2312 12.5376 36.6867 2.7329 42.7922L2.50707 55.0734C2.50707 55.0734 1.38565 51.7325 17.584 47.2234" fill="#B7B7B7"/>
<path d="M17.7008 47.8542C16.7507 48.89 14.5156 48.89 13.3085 49.3884C11.79 50.0192 10.2947 50.8369 8.88517 51.9505C6.0894 54.1622 3.61292 57.6589 2.4915 62.1368C1.19096 57.6277 2.00088 51.8181 4.48514 48.5863C6.28409 46.25 8.7372 45.3544 11.0735 45.4712C12.2572 45.5335 13.4254 45.8294 14.5624 46.2578C15.4502 46.5926 17.0388 46.9197 17.6852 47.8542H17.7008Z" fill="#C4C4C4"/>
<path d="M3.26248 59.6369C5.34957 51.1717 12.1871 48.3137 17.5528 48.2047C16.8675 48.485 16.1822 48.6797 15.5047 48.9211C10.9645 50.65 5.82462 53.1732 3.26248 59.6447V59.6369Z" fill="#8E8E8E"/>
<path d="M18.0512 23.6658C18.0512 23.6658 16.7974 21.0258 14.3209 19.149C11.8445 17.2721 8.13755 16.1429 3.21576 19.1879L2.95876 31.469C2.95876 31.469 1.84513 28.1203 18.0512 23.6658Z" fill="#B7B7B7"/>
<path d="M18.168 24.2888C17.2102 25.3246 14.9751 25.3168 13.7758 25.8074C12.2494 26.4382 10.7542 27.2481 9.34463 28.354C6.54108 30.5579 4.0646 34.0467 2.91982 38.5169C1.64264 34.0078 2.46034 28.1982 4.96018 24.9741C6.76691 22.6456 9.22003 21.75 11.5563 21.8824C12.74 21.9447 13.9004 22.2485 15.0452 22.6768C15.933 23.0116 17.5217 23.3465 18.1603 24.281L18.168 24.2888Z" fill="#C4C4C4"/>
<path d="M3.69858 36.0248C5.81682 27.5596 12.6544 24.7327 18.0279 24.6315C17.3425 24.904 16.6572 25.1065 15.9719 25.3401C11.4239 27.0534 6.29187 29.5611 3.69858 36.0248Z" fill="#8E8E8E"/>
</g>
</svg>
