<svg width="303" height="22" viewBox="0 0 303 22" preserveAspectRatio="none" fill="none" xmlns="http://www.w3.org/2000/svg">
<g opacity="1">
<path d="M290.659 18.8994L299.404 0.068874C203.671 2.39738 107.89 2.92695 12.1412 1.6965L2.85049 20.1766C98.7866 21.5394 194.738 21.1033 290.659 18.8994Z" fill="#C4C4C4"/>
<path d="M2.39878 20.091C5.18676 20.7685 9.69582 17.2018 12.4604 12.1398C15.2251 7.07006 15.1939 2.42083 12.4137 1.7433C9.62573 1.06578 5.13224 4.63252 2.36762 9.6945C-0.396995 14.7643 -0.389193 19.4135 2.40657 20.091H2.39878Z" fill="#8E8E8E"/>
<path d="M290.659 18.8216C293.47 19.3901 297.847 15.6676 300.417 10.5043C302.987 5.34113 302.792 0.691909 299.981 0.115623C297.169 -0.452876 292.816 3.26962 290.238 8.43283C287.66 13.596 287.847 18.2453 290.659 18.8216Z" fill="#8E8E8E"/>
<path d="M288.112 1.7432C195.758 3.97047 103.358 4.54676 10.973 3.45648C10.9886 3.43312 11.2767 3.42533 11.8141 3.40975C12.3592 3.40975 13.1536 3.40975 14.1893 3.40975C16.2531 3.42533 19.2747 3.45648 23.1062 3.48763C30.7692 3.58108 41.6875 3.71348 54.7708 3.86923C80.9373 4.18074 115.756 4.42994 150.497 4.391C185.237 4.34427 219.908 3.99383 245.755 3.46427C258.675 3.1917 269.398 2.90356 276.82 2.59984C284.242 2.31169 288.369 2.00798 288.112 1.75099V1.7432Z" fill="#8E8E8E"/>
<path d="M28.1214 5.48135C28.1214 5.48135 38.5179 10.8237 32.1165 20.4492L19.8275 20.3168C19.8275 20.3168 23.1373 21.5395 28.1136 5.48135" fill="#B7B7B7"/>
<path d="M27.4984 5.34131C26.4315 6.26025 26.3692 8.49531 25.8396 9.68682C25.1621 11.1898 24.2977 12.6617 23.1451 14.0323C20.8555 16.7658 17.281 19.1332 12.7797 20.1223C17.2498 21.5552 23.075 20.9244 26.3847 18.5258C28.7756 16.7969 29.7412 14.375 29.6945 12.0309C29.6711 10.8472 29.4064 9.67124 29.0092 8.51867C28.7055 7.62309 28.4173 6.01884 27.5062 5.3491L27.4984 5.34131Z" fill="#C4C4C4"/>
<path d="M15.2951 19.4212C23.8226 17.5911 26.8754 10.8314 27.1479 5.47348C26.852 6.15101 26.634 6.82853 26.3692 7.50606C24.5079 11.9917 21.8368 17.0615 15.2951 19.429V19.4212Z" fill="#8E8E8E"/>
<path d="M50.6043 5.69153C50.6043 5.69153 61.0164 11.0105 54.6461 20.6516L42.3572 20.5504C42.3572 20.5504 45.667 21.7652 50.6043 5.69153Z" fill="#B7B7B7"/>
<path d="M49.9814 5.55923C48.9145 6.48596 48.86 8.72102 48.3304 9.90474C47.6607 11.4078 46.7962 12.8796 45.6515 14.258C43.3697 16.9915 39.8029 19.3823 35.3017 20.3791C39.7718 21.7965 45.6047 21.1423 48.8989 18.7437C51.2819 17.0071 52.2476 14.5851 52.1853 12.241C52.1541 11.0573 51.8894 9.88138 51.4922 8.72881C51.1807 7.83323 50.8925 6.22897 49.9736 5.56702L49.9814 5.55923Z" fill="#C4C4C4"/>
<path d="M37.8248 19.6782C46.3445 17.8092 49.3817 11.0573 49.6387 5.6916C49.3427 6.36912 49.1247 7.04665 48.8677 7.72417C47.022 12.2254 44.3586 17.2796 37.8248 19.6782Z" fill="#8E8E8E"/>
<path d="M73.0951 5.84749C73.0951 5.84749 83.5227 11.1197 77.1758 20.792L64.8869 20.7219C64.8869 20.7219 68.2044 21.929 73.0873 5.84749" fill="#B7B7B7"/>
<path d="M72.4721 5.70712C71.4129 6.63385 71.3584 8.8689 70.8367 10.0604C70.1669 11.5634 69.3181 13.0431 68.1733 14.4215C65.8993 17.1628 62.3403 19.5536 57.8391 20.5737C62.317 21.9677 68.1421 21.3058 71.4363 18.8916C73.8115 17.155 74.7694 14.7252 74.7071 12.3811C74.676 11.1974 74.4034 10.0215 74.0062 8.8689C73.6947 7.97332 73.3988 6.37686 72.4798 5.70712H72.4721Z" fill="#C4C4C4"/>
<path d="M60.3545 19.8574C68.8742 17.965 71.888 11.2053 72.1216 5.83965C71.8257 6.51717 71.6154 7.20249 71.3584 7.87223C69.5206 12.3735 66.8806 17.4432 60.3545 19.8574Z" fill="#8E8E8E"/>
<path d="M95.578 5.92532C95.578 5.92532 106.021 11.1664 99.7055 20.8542L87.4166 20.8231C87.4166 20.8231 90.7341 22.0224 95.578 5.92532Z" fill="#B7B7B7"/>
<path d="M94.955 5.79289C93.8959 6.72741 93.857 8.95467 93.3274 10.1462C92.6654 11.657 91.8166 13.1289 90.6718 14.5073C88.4056 17.2563 84.8544 19.6471 80.361 20.6829C84.8389 22.0691 90.664 21.3916 93.9504 18.9696C96.3256 17.2252 97.2679 14.7876 97.1979 12.4435C97.1589 11.2598 96.8863 10.0917 96.4814 8.9391C96.1699 8.04352 95.8739 6.44705 94.9472 5.7851L94.955 5.79289Z" fill="#C4C4C4"/>
<path d="M82.8764 19.9741C91.3883 18.0584 94.3787 11.2909 94.6046 5.9252C94.3164 6.60272 94.0984 7.28803 93.8491 7.95777C92.0268 12.4668 89.3946 17.5366 82.8764 19.9663V19.9741Z" fill="#8E8E8E"/>
<path d="M118.069 5.94082C118.069 5.94082 128.528 11.1585 122.243 20.862L109.954 20.862C109.954 20.862 113.279 22.0613 118.069 5.94082Z" fill="#B7B7B7"/>
<path d="M117.446 5.80845C116.394 6.74297 116.356 8.97802 115.834 10.1695C115.172 11.6803 114.331 13.16 113.194 14.5462C110.935 17.2952 107.392 19.7016 102.898 20.753C107.384 22.1236 113.209 21.4383 116.48 19.0007C118.848 17.2407 119.79 14.811 119.712 12.4669C119.673 11.2832 119.393 10.115 118.988 8.96245C118.668 8.06687 118.373 6.4704 117.446 5.81624V5.80845Z" fill="#C4C4C4"/>
<path d="M105.406 20.0286C113.91 18.0972 116.885 11.3142 117.095 5.94851C116.807 6.62604 116.597 7.31135 116.34 7.98888C114.533 12.5057 111.917 17.5833 105.406 20.0364V20.0286Z" fill="#8E8E8E"/>
<path d="M140.552 5.89402C140.552 5.89402 151.026 11.0884 144.765 20.8074L132.476 20.8541C132.476 20.8541 135.801 22.0222 140.552 5.89402Z" fill="#B7B7B7"/>
<path d="M139.929 5.76184C138.877 6.69636 138.846 8.93141 138.332 10.1307C137.678 11.6415 136.837 13.129 135.7 14.5152C133.449 17.2798 129.914 19.6939 125.42 20.7531C129.906 22.1237 135.731 21.4072 139.002 18.9619C141.362 17.2019 142.296 14.7644 142.211 12.4203C142.172 11.2366 141.883 10.0684 141.478 8.91584C141.159 8.02026 140.855 6.42379 139.929 5.76963V5.76184Z" fill="#C4C4C4"/>
<path d="M127.936 20.0132C136.432 18.0585 139.391 11.2521 139.586 5.89417C139.298 6.57169 139.088 7.25701 138.838 7.93453C137.039 12.4514 134.446 17.5523 127.936 20.0132Z" fill="#8E8E8E"/>
<path d="M163.042 5.77724C163.042 5.77724 173.532 10.9405 167.302 20.675L155.013 20.7529C155.013 20.7529 158.346 21.9133 163.042 5.77724Z" fill="#B7B7B7"/>
<path d="M162.419 5.64491C161.368 6.58721 161.345 8.82227 160.831 10.0138C160.184 11.5246 159.343 13.012 158.214 14.406C155.971 17.1706 152.443 19.616 147.958 20.6751C152.451 22.0301 158.269 21.2825 161.532 18.8372C163.891 17.0694 164.818 14.6241 164.725 12.2878C164.678 11.1041 164.39 9.9359 163.977 8.79112C163.658 7.89554 163.346 6.30686 162.419 5.6527V5.64491Z" fill="#C4C4C4"/>
<path d="M150.465 19.9431C158.962 17.9495 161.898 11.1509 162.069 5.78516C161.781 6.47048 161.578 7.148 161.329 7.82553C159.546 12.3502 156.96 17.4511 150.465 19.9431Z" fill="#8E8E8E"/>
<path d="M185.525 5.59824C185.525 5.59824 196.023 10.7225 189.824 20.4882L177.535 20.5973C177.535 20.5973 180.868 21.7498 185.518 5.59824" fill="#B7B7B7"/>
<path d="M184.902 5.47352C183.859 6.41583 183.835 8.65089 183.329 9.85018C182.683 11.3688 181.85 12.8484 180.728 14.2502C178.493 17.0226 174.973 19.4601 170.487 20.5504C174.981 21.8821 180.798 21.1345 184.054 18.6736C186.405 16.898 187.324 14.4527 187.231 12.1164C187.184 10.9327 186.888 9.76452 186.475 8.61974C186.148 7.72416 185.837 6.13548 184.902 5.48131V5.47352Z" fill="#C4C4C4"/>
<path d="M172.995 19.7952C181.484 17.7782 184.396 10.9718 184.56 5.60606C184.279 6.29138 184.069 6.96891 183.828 7.65422C182.06 12.1866 179.49 17.2875 172.995 19.7952Z" fill="#8E8E8E"/>
<path d="M208.016 5.35669C208.016 5.35669 218.53 10.442 212.362 20.2233L200.073 20.3713C200.073 20.3713 203.414 21.5161 208.016 5.35669Z" fill="#B7B7B7"/>
<path d="M207.385 5.23206C206.342 6.17436 206.326 8.40942 205.828 9.60871C205.189 11.1273 204.356 12.6147 203.235 14.0087C201.007 16.7889 197.495 19.2343 193.009 20.3401C197.511 21.6562 203.32 20.893 206.575 18.4321C208.92 16.6565 209.838 14.2034 209.729 11.8593C209.675 10.6756 209.387 9.50747 208.966 8.36269C208.639 7.46711 208.32 5.87843 207.385 5.23206Z" fill="#C4C4C4"/>
<path d="M195.517 19.5847C203.998 17.5444 206.895 10.738 207.043 5.37228C206.762 6.05759 206.56 6.7429 206.311 7.42043C204.558 11.9528 201.996 17.0615 195.517 19.5925V19.5847Z" fill="#8E8E8E"/>
<path d="M230.499 5.04532C230.499 5.04532 241.028 10.1073 234.884 19.9042L222.602 20.0911C222.602 20.0911 225.943 21.2359 230.499 5.04532Z" fill="#B7B7B7"/>
<path d="M229.876 4.92075C228.833 5.87085 228.833 8.1059 228.326 9.3052C227.688 10.8238 226.862 12.319 225.749 13.7208C223.529 16.5088 220.025 18.9619 215.547 20.0755C220.048 21.3838 225.865 20.6129 229.105 18.1286C231.449 16.3374 232.353 13.8843 232.244 11.548C232.189 10.3643 231.893 9.19617 231.465 8.05139C231.138 7.1636 230.811 5.56713 229.876 4.92854V4.92075Z" fill="#C4C4C4"/>
<path d="M218.047 19.3123C226.52 17.2563 229.401 10.4343 229.533 5.06085C229.253 5.74617 229.051 6.43148 228.809 7.109C227.065 11.657 224.526 16.7657 218.047 19.3123Z" fill="#8E8E8E"/>
<path d="M255.786 4.61695C255.786 4.61695 266.33 9.65555 260.225 19.4602L247.943 19.686C247.943 19.686 251.284 20.8075 255.793 4.60916" fill="#B7B7B7"/>
<path d="M255.163 4.49239C254.127 5.44248 254.127 7.67754 253.628 8.88463C252.998 10.4032 252.18 11.8984 251.066 13.308C248.855 16.1038 245.358 18.5803 240.88 19.7017C245.389 21.0022 251.199 20.1923 254.431 17.708C256.767 15.9091 257.662 13.456 257.546 11.1197C257.483 9.93596 257.187 8.76781 256.759 7.63081C256.424 6.74302 256.097 5.15434 255.163 4.50796V4.49239Z" fill="#C4C4C4"/>
<path d="M243.38 18.9307C251.845 16.8436 254.703 10.006 254.812 4.64032C254.532 5.32564 254.337 6.01095 254.096 6.68847C252.367 11.2287 249.844 16.3685 243.372 18.9307H243.38Z" fill="#8E8E8E"/>
<path d="M279.351 4.142C279.351 4.142 281.991 5.39582 283.868 7.87229C285.745 10.3488 286.874 14.0557 283.829 18.9775L271.548 19.2345C271.548 19.2345 274.897 20.3481 279.351 4.142Z" fill="#B7B7B7"/>
<path d="M278.728 4.02516C277.692 4.98305 277.7 7.2181 277.209 8.4174C276.579 9.94378 275.769 11.439 274.663 12.8486C272.459 15.6521 268.97 18.1286 264.5 19.2734C269.009 20.5506 274.819 19.7329 278.043 17.233C280.371 15.4263 281.267 12.9732 281.134 10.6369C281.072 9.45316 280.768 8.2928 280.34 7.14801C280.005 6.26022 279.67 4.67154 278.736 4.03295L278.728 4.02516Z" fill="#C4C4C4"/>
<path d="M266.992 18.4946C275.457 16.3764 278.284 9.53883 278.385 4.16535C278.113 4.85066 277.91 5.53597 277.677 6.22129C275.963 10.7693 273.456 15.9013 266.992 18.4946Z" fill="#8E8E8E"/>
</g>
</svg>
