<svg width="205" height="27" viewBox="0 0 205 27" preserveAspectRatio="none" fill="none" xmlns="http://www.w3.org/2000/svg">
<path d="M194.767 25.2522L200.859 1.64928L10.1347 1.6789L4.14435 25.2522H194.767Z" fill="#E86C46"/>
<path d="M10.3206 1.73451C12.1746 2.54249 12.2281 8.4417 10.4401 14.9108C8.65215 21.3798 5.69977 25.9691 3.8458 25.1611C1.99183 24.3531 1.93833 18.4539 3.72631 11.9848C5.51429 5.51576 8.46667 0.926531 10.3206 1.73451Z" fill="#CC4323"/>
<path d="M201.245 1.75563C203.099 2.56361 203.153 8.46282 201.365 14.9319C199.577 21.401 196.624 25.9902 194.77 25.1822C192.916 24.3742 192.863 18.475 194.651 12.0059C196.439 5.53688 199.391 0.947651 201.245 1.75563Z" fill="#CC4323"/>
<path d="M193.343 3.92908H9.37946" stroke="#CC4323" stroke-miterlimit="10"/>
<path d="M20.7738 6.23926C20.7738 6.23926 27.7075 12.873 23.5253 25.1631H15.3888C15.3888 25.1631 17.5821 26.6635 20.7738 6.23926Z" fill="#DB5D40"/>
<path d="M20.3558 6.07135C19.6561 7.25594 19.6325 10.0891 19.2866 11.5994C18.8464 13.5145 18.2882 15.3901 17.5336 17.1472C16.032 20.6418 13.6894 23.6921 10.7099 25.0248C13.6894 26.7523 17.5414 25.8638 19.7112 22.7839C21.2834 20.5628 21.9045 17.473 21.8573 14.5017C21.8337 13.0012 21.645 11.5205 21.3778 10.0595C21.1655 8.92423 20.969 6.90056 20.3558 6.06148V6.07135Z" fill="#E86C46"/>
<path d="M12.3763 24.0964C18.0051 21.6285 19.9861 13.0402 20.1276 6.23871C19.939 7.09754 19.7975 7.96623 19.6245 8.82506C18.4217 14.5506 16.6922 20.9868 12.3763 24.0964Z" fill="#CC4323"/>
<path d="M35.6937 6.23926C35.6937 6.23926 42.6275 12.873 38.4452 25.1631H30.3087C30.3087 25.1631 32.502 26.6635 35.6937 6.23926Z" fill="#DB5D40"/>
<path d="M35.2757 6.07097C34.576 7.25556 34.5525 10.0887 34.2066 11.599C33.7663 13.5141 33.2082 15.3897 32.4535 17.1469C30.952 20.6414 28.6093 23.6917 25.6298 25.0244C28.6014 26.7618 32.4535 25.8733 34.6311 22.7934C36.2033 20.5723 36.8244 17.4825 36.7772 14.5112C36.7536 13.0107 36.565 11.5299 36.2977 10.069C36.0854 8.93372 35.8889 6.91005 35.2757 6.07097Z" fill="#E86C46"/>
<path d="M27.3052 24.0964C32.9339 21.6285 34.915 13.0402 35.0565 6.23871C34.8678 7.09754 34.7263 7.96623 34.5533 8.82506C33.3506 14.5506 31.6211 20.9868 27.3052 24.0964Z" fill="#CC4323"/>
<path d="M50.6159 6.23926C50.6159 6.23926 57.5496 12.873 53.3674 25.1631H45.2309C45.2309 25.1631 47.4242 26.6635 50.6159 6.23926Z" fill="#DB5D40"/>
<path d="M50.1979 6.07097C49.4982 7.25556 49.4746 10.0887 49.1287 11.599C48.6885 13.5141 48.1304 15.3897 47.3757 17.1469C45.8741 20.6414 43.5315 23.6917 40.552 25.0244C43.5236 26.7618 47.3757 25.8733 49.5533 22.7934C51.1255 20.5723 51.7466 17.4825 51.6994 14.5112C51.6758 13.0107 51.4872 11.5299 51.2199 10.069C51.0076 8.93372 50.8111 6.91005 50.1979 6.07097Z" fill="#E86C46"/>
<path d="M42.2251 24.0964C47.8538 21.6285 49.8349 13.0402 49.9764 6.23871C49.7877 7.09754 49.6462 7.96623 49.4733 8.82506C48.2705 14.5506 46.541 20.9868 42.2251 24.0964Z" fill="#CC4323"/>
<path d="M65.5336 6.23926C65.5336 6.23926 72.4674 12.873 68.2851 25.1631H60.1486C60.1486 25.1631 62.3419 26.6635 65.5336 6.23926Z" fill="#DB5D40"/>
<path d="M65.1267 6.07097C64.4271 7.25556 64.4035 10.0887 64.0576 11.599C63.6173 13.5141 63.0592 15.3897 62.3045 17.1469C60.803 20.6414 58.4603 23.6917 55.4808 25.0244C58.4524 26.7618 62.3045 25.8733 64.4821 22.7934C66.0544 20.5723 66.6754 17.4825 66.6282 14.5112C66.6047 13.0107 66.416 11.5299 66.1487 10.069C65.9364 8.93372 65.7399 6.91005 65.1267 6.07097Z" fill="#E86C46"/>
<path d="M57.145 24.0964C62.7738 21.6285 64.7548 13.0402 64.8963 6.23871C64.7076 7.09754 64.5661 7.96623 64.3932 8.82506C63.1904 14.5506 61.4609 20.9868 57.145 24.0964Z" fill="#CC4323"/>
<path d="M80.4625 6.23926C80.4625 6.23926 87.3962 12.873 83.214 25.1631H75.0775C75.0775 25.1631 77.2708 26.6635 80.4625 6.23926Z" fill="#DB5D40"/>
<path d="M80.0466 6.07097C79.347 7.25556 79.3234 10.0887 78.9775 11.599C78.5373 13.5141 77.9791 15.3897 77.2244 17.1469C75.7229 20.6414 73.3802 23.6917 70.4008 25.0244C73.3724 26.7618 77.2244 25.8733 79.402 22.7934C80.9743 20.5723 81.5953 17.4825 81.5482 14.5112C81.5246 13.0107 81.3359 11.5299 81.0686 10.069C80.8564 8.93372 80.6598 6.91005 80.0466 6.07097Z" fill="#E86C46"/>
<path d="M72.0672 24.0964C77.6959 21.6285 79.677 13.0402 79.8185 6.23871C79.6298 7.09754 79.4883 7.96623 79.3154 8.82506C78.1126 14.5506 76.3831 20.9868 72.0672 24.0964Z" fill="#CC4323"/>
<path d="M95.3846 6.23926C95.3846 6.23926 102.318 12.873 98.1361 25.1631H89.9996C89.9996 25.1631 92.1929 26.6635 95.3846 6.23926Z" fill="#DB5D40"/>
<path d="M94.9688 6.07097C94.2692 7.25556 94.2456 10.0887 93.8997 11.599C93.4594 13.5141 92.9013 15.3897 92.1466 17.1469C90.6451 20.6414 88.3024 23.6917 85.3229 25.0244C88.2945 26.7618 92.1466 25.8733 94.3242 22.7934C95.8965 20.5723 96.5175 17.4825 96.4703 14.5112C96.4468 13.0107 96.2581 11.5299 95.9908 10.069C95.7785 8.93372 95.582 6.91005 94.9688 6.07097Z" fill="#E86C46"/>
<path d="M86.9871 24.0964C92.6159 21.6285 94.5969 13.0402 94.7384 6.23871C94.5497 7.09754 94.4082 7.96623 94.2353 8.82506C93.0325 14.5506 91.303 20.9868 86.9871 24.0964Z" fill="#CC4323"/>
<path d="M110.305 6.23926C110.305 6.23926 117.238 12.873 113.056 25.1631H104.92C104.92 25.1631 107.113 26.6635 110.305 6.23926Z" fill="#DB5D40"/>
<path d="M109.887 6.07097C109.187 7.25556 109.163 10.0887 108.817 11.599C108.377 13.5141 107.819 15.3897 107.064 17.1469C105.563 20.6414 103.22 23.6917 100.241 25.0244C103.212 26.7618 107.064 25.8733 109.242 22.7934C110.814 20.5723 111.435 17.4825 111.388 14.5112C111.364 13.0107 111.176 11.5299 110.909 10.069C110.696 8.93372 110.5 6.91005 109.887 6.07097Z" fill="#E86C46"/>
<path d="M101.909 24.0964C107.538 21.6285 109.519 13.0402 109.661 6.23871C109.472 7.09754 109.33 7.96623 109.157 8.82506C107.955 14.5506 106.225 20.9868 101.909 24.0964Z" fill="#CC4323"/>
<path d="M125.227 6.23926C125.227 6.23926 132.16 12.873 127.978 25.1631H119.842C119.842 25.1631 122.035 26.6635 125.227 6.23926Z" fill="#DB5D40"/>
<path d="M124.809 6.07097C124.109 7.25556 124.085 10.0887 123.74 11.599C123.299 13.5141 122.741 15.3897 121.986 17.1469C120.485 20.6414 118.142 23.6917 115.163 25.0244C118.134 26.7618 121.986 25.8733 124.164 22.7934C125.736 20.5723 126.357 17.4825 126.31 14.5112C126.287 13.0107 126.098 11.5299 125.831 10.069C125.618 8.93372 125.422 6.91005 124.809 6.07097Z" fill="#E86C46"/>
<path d="M116.829 24.0964C122.458 21.6285 124.439 13.0402 124.581 6.23871C124.392 7.09754 124.25 7.96623 124.077 8.82506C122.875 14.5506 121.145 20.9868 116.829 24.0964Z" fill="#CC4323"/>
<path d="M140.147 6.23926C140.147 6.23926 147.08 12.873 142.898 25.1631H134.762C134.762 25.1631 136.955 26.6635 140.147 6.23926Z" fill="#DB5D40"/>
<path d="M139.729 6.07097C139.029 7.25556 139.005 10.0887 138.66 11.599C138.219 13.5141 137.661 15.3897 136.906 17.1469C135.405 20.6414 133.062 23.6917 130.083 25.0244C133.054 26.7618 136.906 25.8733 139.084 22.7934C140.656 20.5723 141.277 17.4825 141.23 14.5112C141.207 13.0107 141.018 11.5299 140.751 10.069C140.538 8.93372 140.342 6.91005 139.729 6.07097Z" fill="#E86C46"/>
<path d="M131.758 24.0964C137.387 21.6285 139.368 13.0402 139.509 6.23871C139.321 7.09754 139.179 7.96623 139.006 8.82506C137.803 14.5506 136.074 20.9868 131.758 24.0964Z" fill="#CC4323"/>
<path d="M155.069 6.23926C155.069 6.23926 162.003 12.873 157.82 25.1631H149.684C149.684 25.1631 151.877 26.6635 155.069 6.23926Z" fill="#DB5D40"/>
<path d="M154.651 6.07097C153.951 7.25556 153.928 10.0887 153.582 11.599C153.141 13.5141 152.583 15.3897 151.829 17.1469C150.327 20.6414 147.984 23.6917 145.005 25.0244C147.976 26.7618 151.829 25.8733 154.006 22.7934C155.578 20.5723 156.199 17.4825 156.152 14.5112C156.129 13.0107 155.94 11.5299 155.673 10.069C155.46 8.93372 155.264 6.91005 154.651 6.07097Z" fill="#E86C46"/>
<path d="M146.68 24.0964C152.309 21.6285 154.29 13.0402 154.432 6.23871C154.243 7.09754 154.101 7.96623 153.928 8.82506C152.726 14.5506 150.996 20.9868 146.68 24.0964Z" fill="#CC4323"/>
<path d="M171.851 6.23926C171.851 6.23926 178.785 12.873 174.602 25.1631H166.466C166.466 25.1631 168.659 26.6635 171.851 6.23926Z" fill="#DB5D40"/>
<path d="M171.435 6.07097C170.736 7.25556 170.712 10.0887 170.366 11.599C169.926 13.5141 169.368 15.3897 168.613 17.1469C167.111 20.6414 164.769 23.6917 161.789 25.0244C164.761 26.7618 168.613 25.8733 170.791 22.7934C172.363 20.5723 172.984 17.4825 172.937 14.5112C172.913 13.0107 172.724 11.5299 172.457 10.069C172.245 8.93372 172.048 6.91005 171.435 6.07097Z" fill="#E86C46"/>
<path d="M163.462 24.0964C169.091 21.6285 171.072 13.0402 171.214 6.23871C171.025 7.09754 170.884 7.96623 170.711 8.82506C169.508 14.5506 167.778 20.9868 163.462 24.0964Z" fill="#CC4323"/>
<path d="M187.496 6.23926C187.496 6.23926 194.43 12.873 190.248 25.1631H182.111C182.111 25.1631 184.305 26.6635 187.496 6.23926Z" fill="#DB5D40"/>
<path d="M187.078 6.07097C186.379 7.25556 186.355 10.0887 186.009 11.599C185.569 13.5141 185.011 15.3897 184.256 17.1469C182.754 20.6414 180.412 23.6917 177.432 25.0244C180.404 26.7618 184.256 25.8733 186.434 22.7934C188.006 20.5723 188.627 17.4825 188.58 14.5112C188.556 13.0107 188.367 11.5299 188.1 10.069C187.888 8.93372 187.691 6.91005 187.078 6.07097Z" fill="#E86C46"/>
<path d="M179.101 24.0964C184.73 21.6285 186.711 13.0402 186.852 6.23871C186.664 7.09754 186.522 7.96623 186.349 8.82506C185.146 14.5506 183.417 20.9868 179.101 24.0964Z" fill="#CC4323"/>
</svg>
